<svg width="76" height="24" viewBox="0 0 76 24" fill="none" xmlns="http://www.w3.org/2000/svg">
  <path d="M14.478 5.985c-.679-1.343-1.575-2.534-2.68-3.45C10.69 1.63 9.4 1 7.978 1c-.435 0-.853.073-1.264.218-.326.109-.64.255-.935.434l-.092.059a.199.199 0 0 0-.036.032C5.208 1.995 4.87 2.4 4.595 2.865c-.61.938-.993 2.127-1.163 3.455-.074.581-.11 1.183-.11 1.8-1.465.366-2.671.842-3.38 1.442-.212.18-.36.41-.436.68a1.74 1.74 0 0 0-.066.473c0 .215.033.412.098.587.165.44.557.816 1.13 1.092.887.418 2.19.63 3.758.63.372 0 .752-.01 1.137-.029.386-.019.777-.046 1.167-.082.419 2.566.988 4.625 1.688 6.115.494 1.056 1.057 1.868 1.677 2.418.62.552 1.303.83 2.027.83.254 0 .509-.033.758-.097a3.4 3.4 0 0 0 .708-.27c.262-.137.514-.31.753-.515a3.88 3.88 0 0 0 .61-.66 5.27 5.27 0 0 0 .449-.727l.033-.067c.024-.05.047-.098.07-.146.166-.342.312-.703.434-1.073.194-.582.372-1.198.53-1.835.003-.012.006-.024.01-.036C18.626 11.23 16.36 7.636 14.478 5.985ZM8.7 6.53c.142-1.12.403-2.06.777-2.799.167-.31.35-.572.544-.787.005-.005.01-.01.014-.015.017-.019.035-.036.053-.053.241-.226.495-.39.756-.489.173-.064.34-.098.503-.098 1.175 0 2.206.626 3.042 1.78.523.727.952 1.668 1.28 2.786a21.52 21.52 0 0 1 1.066 5.024 27.6 27.6 0 0 1-2.379.546 26.9 26.9 0 0 1-2.708.285 25.26 25.26 0 0 1-.74.017h-.147c-.33-2.31-.425-4.59-.261-6.237Zm-.78-2.04c-.357.843-.6 1.912-.72 3.182a28.07 28.07 0 0 0-.162 3.768 37.2 37.2 0 0 1-1.523.179 14.55 14.55 0 0 1-1.351.065c-.92 0-1.681-.116-2.261-.345-.143-.057-.263-.123-.357-.194l-.037-.028a.431.431 0 0 1-.19-.315.37.37 0 0 1 .02-.181c.016-.052.043-.098.081-.135.972-.924 3.647-1.385 6.505-1.485l-.005.224c-.034 1.727.076 3.73.347 5.82a38.19 38.19 0 0 1-1.206.064 44.5 44.5 0 0 1-1.32.028c-.705 0-1.384-.019-2.025-.058a28.17 28.17 0 0 1-1.756-.173c-.058-.02-.112-.037-.162-.055-.135-.05-.254-.1-.353-.153-.21-.111-.338-.221-.373-.34a.347.347 0 0 1-.012-.098.392.392 0 0 1 .034-.178c.695-1.194 3.292-1.886 6.75-2.048-.043 1.4.016 2.977.176 4.626-1.623.136-3.13.18-4.436.124-1.29-.055-2.404-.2-3.3-.432-.889-.233-1.543-.55-1.936-.942-.197-.196-.309-.411-.34-.636a.466.466 0 0 1-.005-.075c0-.08.016-.161.046-.24.078-.2.217-.38.41-.533 1.079-.872 3.632-1.442 6.466-1.615.229-1.976.646-3.68 1.242-5.016.295-.655.64-1.192 1.03-1.604.188-.199.39-.365.603-.497.21-.13.43-.223.653-.276.02-.004.04-.009.06-.013.044-.01.084-.018.122-.025.09-.018.18-.026.266-.026.635 0 1.258.272 1.85.808a7.83 7.83 0 0 1 1.627 2.483 16.09 16.09 0 0 1 .284.825 33.37 33.37 0 0 0-2.687.52c-.206-1.01-.505-1.861-.889-2.528a4.06 4.06 0 0 0-.872-1.026 2.06 2.06 0 0 0-1.103-.47c-.221-.027-.443-.005-.663.064-.14.043-.28.105-.417.186-.137.082-.27.184-.397.307-.256.248-.492.572-.705.967ZM23.325 7.787c-.323-.006-.614.094-.856.29-.242.196-.452.476-.62.83l-.026-.001H20.11v-.998h-1.1v9.586h1.1v-6.51h1.714c-.085.273-.144.513-.174.712-.029.199-.044.396-.044.586 0 .604.178 1.078.53 1.41.36.332.852.5 1.462.5.78 0 1.35-.236 1.73-.721.38-.484.572-1.196.572-2.134V9.847c0-.67-.194-1.2-.577-1.575-.392-.376-.913-.572-1.472-.584ZM35.41 7.906c-.77 0-1.36.221-1.794.633-.274.262-.459.637-.554 1.114-.094.477-.142 1.11-.142 1.891v4.75h1.099v-4.74c0-.617.035-1.096.106-1.414.07-.318.192-.565.376-.74.267-.246.623-.37 1.059-.37.406 0 .75.143 1 .414.26.273.393.654.393 1.134v5.716h1.099v-5.7c0-.632-.089-1.17-.264-1.596a2.2 2.2 0 0 0-.795-.992c-.36-.25-.794-.371-1.281-.371ZM54.559 7.906c-.771 0-1.36.221-1.794.633-.274.262-.46.637-.554 1.114-.095.477-.143 1.11-.143 1.891v4.75h1.1v-4.74c0-.617.035-1.096.105-1.414.072-.318.194-.565.378-.74.265-.246.621-.37 1.058-.37.405 0 .75.143 1 .414.26.273.392.654.392 1.134v5.716h1.1v-5.7c0-.632-.089-1.17-.265-1.596a2.2 2.2 0 0 0-.794-.992c-.359-.25-.794-.371-1.282-.371ZM59.989 10.38V16.5h1.099v-4.366c0-.693.042-1.205.126-1.528.085-.322.238-.568.465-.744.241-.196.542-.295.898-.295.461 0 .807.138 1.038.411.231.273.348.693.348 1.254v5.268h1.099v-5.233c0-.659-.077-1.175-.232-1.549a1.85 1.85 0 0 0-.84-.952c-.339-.185-.737-.279-1.183-.279-.741 0-1.338.266-1.78.792v-.499h-1.038ZM44.198 7.926c-.548 0-1.022.109-1.412.33-.39.22-.692.53-.894.917-.221.413-.34.942-.354 1.575l1.033.113c.017-.405.087-.727.214-.964.127-.237.314-.414.556-.53.242-.113.538-.172.88-.172.59 0 1.04.143 1.335.428.297.285.444.663.444 1.16v.014c0 .643-.48 1.16-1.43 1.539l-1.285.532c-.695.284-1.19.644-1.475 1.074-.284.433-.427.924-.427 1.462 0 .555.202 1.012.6 1.36.399.348.916.524 1.537.524.642 0 1.176-.183 1.59-.544.162-.138.306-.298.427-.48v.769h1.033v-2.5c0-.676.063-1.22.188-1.62.124-.4.32-.722.588-.965.223-.191.462-.286.727-.286.228 0 .414.067.553.2.14.132.21.308.21.526 0 .382-.212.576-.65.576-.062 0-.127-.005-.194-.015a16 16 0 0 1 .163.882c.026.226.04.44.04.64 0 .126-.008.252-.027.379a1.55 1.55 0 0 0 1.138 1.3 3.12 3.12 0 0 0 .824.108c.636 0 1.165-.188 1.562-.563.4-.375.603-.84.603-1.39 0-.428-.126-.794-.37-1.091-.245-.298-.59-.517-1.029-.655l-.21-.066c.297-.145.532-.347.702-.61.169-.265.255-.59.255-.97 0-.603-.21-1.06-.62-1.353-.412-.293-.99-.442-1.622-.442-.615 0-1.125.15-1.517.444-.272.207-.49.482-.647.818V9.79c-.1-.54-.313-.95-.644-1.24-.419-.36-.99-.54-1.72-.54Zm-2.46 6.075c0-.44.104-.785.311-1.026.208-.24.634-.463 1.27-.67l1.033-.337c.527-.173.967-.428 1.3-.758.2-.2.352-.434.454-.693.053.27.08.573.08.914v.392c-.03.207-.104.397-.22.573-.37.53-1.099.887-2.178 1.067l-.39.065c-.307.049-.584.112-.828.19a2.09 2.09 0 0 0-.302.12c-.214.09-.385.213-.51.37.048-.062.124-.107.223-.135-.082.064-.145.149-.188.26-.042.11-.064.243-.064.396Zm9.664-6.075c-.548 0-1.022.109-1.412.33-.39.22-.691..53-.894.917-.22.413-.339.942-.352 1.575l1.032.113c.016-.405.087-.727.214-.964.126-.237.313-.414.556-.53.242-.113.537-.172.879-.172.591 0 1.041.143 1.337.428.295.285.443.663.443 1.16v.014c0 .643-.48 1.16-1.43 1.539l-1.284.532c-.695.284-1.19.644-1.475 1.074-.285.433-.427.924-.427 1.462 0 .555.2 1.012.6 1.36.398.348.916.524 1.536.524.643 0 1.176-.183 1.59-.544.162-.138.306-.298.428-.48v.769h1.033v-2.5c0-.676.062-1.22.187-1.62.125-.4.32-.722.59-.965.223-.191.461-.286.726-.286.229 0 .415.067.553.2.14.132.211.308.211.526 0 .382-.213.576-.65.576-.062 0-.128-.005-.194-.015.096.3.157.586.187.862.03.277.045.546.045.81 0 .618.163 1.12.483 1.494.322.375.808.566 1.443.566.416 0 .768-.07 1.039-.221.271-.148.474-.36.611-.636.136-.273.206-.61.206-1.006 0-.48-.088-.91-.262-1.275-.175-.366-.442-.656-.797-.864l-.216-.12a3.32 3.32 0 0 1-.201-.118c.297-.145.532-.347.701-.61.17-.265.255-.59.255-.97 0-.603-.21-1.06-.621-1.353-.411-.293-.99-.442-1.621-.442-.617 0-1.126.15-1.519.444-.272.207-.489.482-.646.818V9.79c-.1-.54-.313-.95-.644-1.24-.42-.36-.99-.54-1.72-.54ZM68.39 8c-.068 0-.14.005-.213.015l-1.07.144v1.05h1.073v6.42h1.14V8.001h-.93ZM29.626 7.912c-.596 0-1.137.155-1.61.461a2.74 2.74 0 0 0-.97 1.247c-.204.54-.308 1.256-.308 2.128 0 .544.058 1.025.172 1.436.116.41.29.753.516 1.016.45.525 1.088.793 1.897.793.502 0 .945-.116 1.307-.348.217-.136.408-.307.574-.513.03.596.13 1.105.3 1.52.168.412.413.733.742.957.33.225.744.336 1.232.336a3.01 3.01 0 0 0 .921-.134l-.296-1.006a2.16 2.16 0 0 1-.625.091.808.808 0 0 1-.538-.174 1.05 1.05 0 0 1-.298-.514c-.096-.358-.144-.938-.144-1.721v-4.716h-1.087v.893c-.211-.315-.479-.552-.795-.71a2.33 2.33 0 0 0-1.09-.242Zm.184.9c.44 0 .787.156 1.032.467.25.31.375.761.375 1.335v2.135c0 .481-.163.903-.485 1.247-.325.343-.74.516-1.234.516-.594 0-1.007-.213-1.266-.65-.257-.433-.384-1.16-.384-2.157 0-.741.07-1.314.208-1.703.139-.39.347-.67.62-.829.256-.143.59-.224 1.034-.224Zm33.028 0c.448 0 .795.155 1.037.468.24.312.361.76.361 1.33v2.14c0 .487-.15.903-.456 1.249-.307.346-.701.521-1.176.521-.592 0-1.015-.217-1.262-.653-.25-.436-.373-1.159-.373-2.153 0-.742.066-1.309.196-1.7.13-.391.33-.676.591-.837.253-.145.586-.215 1.082-.215ZM73.096 7.946c-.26 0-.497.116-.682.332a1.96 1.96 0 0 0-.326.61 3.23 3.23 0 0 0-.119.81v.694h-.809v.93h.809v5.177h1.1v-5.176h.92v-.93h-.92v-.839c0-.257.056-.446.163-.574a.54.54 0 0 1 .425-.174c.09 0 .174.02.262.062l.252-1.007a1.51 1.51 0 0 0-.415-.058Z" fill="white" fill-opacity="0.8"/>
</svg>

